<svg width="177" height="158" viewBox="0 0 177 158" fill="none" xmlns="http://www.w3.org/2000/svg">
<g filter="url(#filter0_f_394_13944)">
<path d="M61.8125 122.843C60.1998 122.843 58.5959 122.404 57.1771 121.534C55.9009 120.745 54.8475 119.644 54.1167 118.336C53.3858 117.028 53.0015 115.556 53 114.058V43.7829C53 40.7347 54.5862 37.9061 57.1771 36.3073C58.4562 35.5234 59.9143 35.0766 61.4143 35.009C62.9143 34.9414 64.4068 35.2552 65.7517 35.9208L136.252 71.0586C137.715 71.7894 138.946 72.9119 139.807 74.3004C140.667 75.6889 141.122 77.2887 141.122 78.9206C141.122 80.5526 140.667 82.1523 139.807 83.5408C138.946 84.9293 137.715 86.0518 136.252 86.7827L65.7517 121.92C64.5179 122.535 63.152 122.843 61.8125 122.843Z" fill="#7100FF"/>
</g>
<path d="M94.0411 88.1205C111.208 95.0036 119.668 71.3633 104.079 65.1972C98.7528 63.094 93.8567 64.6577 89.3909 69.8884C89.1041 70.2161 88.8719 70.182 88.6944 69.786L83.3477 58.6828C83.1428 58.2731 83.2247 57.9317 83.5935 57.6585C93.5494 50.2974 103.376 49.635 113.072 55.6714C121.082 60.6699 126.511 71.3429 124.646 80.7662C121.963 94.471 109.958 103.526 96.0896 101.477C82.8355 99.5104 76.7718 89.3701 74.6823 76.6281C72.5518 63.5379 57.5154 59.2564 50.6938 71.814C43.9335 84.2897 62.309 96.54 71.5275 84.5765C71.6302 84.444 71.7644 84.3393 71.9179 84.2719C72.0715 84.2046 72.2394 84.1768 72.4064 84.1911C72.5735 84.2053 72.7343 84.2612 72.8742 84.3536C73.0141 84.4459 73.1286 84.5719 73.2073 84.7199L78.1648 94.2252C78.3931 94.6578 78.4482 95.1612 78.3188 95.633C78.1894 96.1048 77.8854 96.5096 77.4683 96.7654C66.4608 103.567 56.2044 103.505 46.6991 96.581C39.4062 91.2753 35.7189 80.7457 37.624 72.0394C41.0246 56.5113 57.1467 47.0675 71.9372 53.8277C84.9865 59.8095 84.8841 70.2776 88.6944 82.446C89.5275 85.1501 91.3097 87.0416 94.0411 88.1205Z" fill="white"/>
<path d="M20.3345 64.8902L24.616 57.0852C24.6771 56.9752 24.766 56.8833 24.8739 56.8186C24.9818 56.7538 25.1048 56.7186 25.2306 56.7165L35.9855 56.3068C36.1189 56.2966 36.2524 56.3239 36.3711 56.3856C36.4898 56.4474 36.5888 56.5411 36.657 56.6562C36.7252 56.7712 36.7599 56.9031 36.757 57.0369C36.7542 57.1706 36.714 57.3009 36.641 57.413L26.0295 74.6003C25.9545 74.7163 25.9147 74.8515 25.9147 74.9896C25.9147 75.1277 25.9545 75.2628 26.0295 75.3788L39.5295 96.6018C39.6025 96.7139 39.6427 96.8442 39.6455 96.9779C39.6483 97.1116 39.6137 97.2435 39.5455 97.3586C39.4773 97.4737 39.3783 97.5674 39.2596 97.6291C39.1409 97.6909 39.0073 97.7182 38.8739 97.708L27.9756 97.0115C27.8608 97.0068 27.7487 96.9746 27.6488 96.9176C27.549 96.8605 27.4644 96.7803 27.402 96.6837L20.3141 85.2323C20.2486 85.1273 20.157 85.041 20.0483 84.9819C19.9396 84.9227 19.8174 84.8927 19.6937 84.8948C19.57 84.8968 19.4489 84.9309 19.3422 84.9936C19.2355 85.0564 19.1469 85.1457 19.0849 85.2528L12.3862 96.7861C12.3269 96.8932 12.2411 96.9833 12.1371 97.0478C12.0331 97.1124 11.9144 97.1492 11.7921 97.1549L0.7504 97.5236C0.618715 97.5298 0.487885 97.4995 0.372291 97.4361C0.256697 97.3727 0.160811 97.2787 0.0951774 97.1644C0.0295442 97.05 -0.00329704 96.9198 0.000261316 96.7881C0.00381967 96.6563 0.0436396 96.528 0.115347 96.4174L13.6563 75.4198C13.7312 75.3038 13.7711 75.1686 13.7711 75.0305C13.7711 74.8924 13.7312 74.7573 13.6563 74.6413L2.8604 57.5564C2.79517 57.4476 2.75997 57.3235 2.75838 57.1967C2.75679 57.0698 2.78886 56.9449 2.85134 56.8345C2.91382 56.7241 3.00447 56.6323 3.11402 56.5683C3.22358 56.5044 3.34814 56.4707 3.47497 56.4707L14.3733 56.737C14.5025 56.7355 14.6298 56.769 14.7416 56.8339C14.8534 56.8988 14.9455 56.9927 15.0083 57.1057L19.0849 64.8697C19.1455 64.9816 19.2347 65.0754 19.3435 65.1414C19.4522 65.2074 19.5765 65.2433 19.7037 65.2454C19.8309 65.2474 19.9564 65.2156 20.0673 65.1532C20.1781 65.0908 20.2704 65 20.3345 64.8902Z" fill="white"/>
<path d="M134.009 85.5602C134.336 88.2643 134.493 91.5625 134.48 95.4547C134.48 96.6019 133.906 97.1755 132.759 97.1755L125.999 97.2165C124.893 97.2165 124.312 96.6634 124.258 95.5571C124.107 93.0442 124.531 90.6338 125.528 88.3257C128.723 80.8417 128.696 73.1801 125.446 65.341C124.503 63.0603 124.094 60.7181 124.217 58.3145C124.271 57.1673 124.872 56.5937 126.019 56.5937L133.025 56.5527C133.954 56.5527 134.412 57.0171 134.398 57.9457L134.152 71.3433C134.138 71.7393 134.336 71.9373 134.746 71.9373L151.626 71.8349C151.981 71.8349 152.152 71.6574 152.138 71.3023L151.647 57.5975C151.641 57.4714 151.662 57.3454 151.708 57.2275C151.754 57.1095 151.824 57.0021 151.915 56.9118C152.005 56.8215 152.113 56.7504 152.233 56.7027C152.352 56.655 152.48 56.6319 152.609 56.6347L160.722 56.8395C161.473 56.8532 161.848 57.2356 161.848 57.9867L161.787 95.5981C161.787 96.677 161.254 97.2096 160.189 97.196L152.896 97.0935C151.995 97.0799 151.565 96.6292 151.606 95.7415L151.954 85.1915C152.022 83.1566 151.039 82.1391 149.004 82.1391L137.02 82.1596C134.726 82.1596 133.722 83.2931 134.009 85.5602Z" fill="white"/>
<circle cx="61.9187" cy="77.2654" r="6.04082" fill="#FEFDFD"/>
<circle cx="99.6737" cy="77.2655" r="3.02041" fill="#FEFDFD"/>
<defs>
<filter id="filter0_f_394_13944" x="-9" y="-9" width="211" height="167" filterUnits="userSpaceOnUse" color-interpolation-filters="sRGB">
<feFlood flood-opacity="0" result="BackgroundImageFix"/>
<feBlend mode="normal" in="SourceGraphic" in2="BackgroundImageFix" result="shape"/>
<feGaussianBlur stdDeviation="17.5" result="effect1_foregroundBlur_394_13944"/>
</filter>
</defs>
</svg>
